<svg xmlns="http://www.w3.org/2000/svg" xmlns:xlink="http://www.w3.org/1999/xlink" width="1080" zoomAndPan="magnify" viewBox="0 0 810 809.999993" height="1080" preserveAspectRatio="xMidYMid meet" version="1.0"><defs><g/></defs><rect x="-81" width="972" fill="#ffffff" y="-80.999999" height="971.999992" fill-opacity="1"/><rect x="-81" width="972" fill="#ffffff" y="-80.999999" height="971.999992" fill-opacity="1"/><g fill="#1d5965" fill-opacity="1"><g transform="translate(375.012493, 445.124998)"><g><path d="M 0 -64.6875 L 65.734375 -64.6875 L 65.734375 -53.25 L 55.953125 -53.25 L 55.953125 0 L 42.015625 0 L 42.015625 -27.5625 L 25.578125 -27.5625 L 25.578125 -24.859375 C 25.578125 -22.085938 24.988281 -20.09375 23.8125 -18.875 C 22.632812 -17.664062 20.9375 -17.0625 18.71875 -17.0625 C 17.125 -17.0625 15.425781 -17.523438 13.625 -18.453125 C 11.820312 -19.390625 10.140625 -20.617188 8.578125 -22.140625 C 7.015625 -23.671875 5.726562 -25.320312 4.71875 -27.09375 C 3.71875 -28.863281 3.21875 -30.546875 3.21875 -32.140625 C 3.21875 -33.867188 3.6875 -35.441406 4.625 -36.859375 C 5.5625 -38.285156 7.554688 -39 10.609375 -39 L 42.015625 -39 L 42.015625 -53.25 L 0 -53.25 Z M 0 -64.6875 "/></g></g></g><g fill="#1d5965" fill-opacity="1"><g transform="translate(439.279614, 445.124998)"><g><path d="M -21.53125 -63.953125 C -22.707031 -68.046875 -23.867188 -71.390625 -25.015625 -73.984375 C -26.160156 -76.585938 -27.476562 -78.492188 -28.96875 -79.703125 C -30.457031 -80.921875 -32.378906 -81.53125 -34.734375 -81.53125 C -36.117188 -81.53125 -37.398438 -81.390625 -38.578125 -81.109375 C -39.765625 -80.835938 -40.84375 -80.53125 -41.8125 -80.1875 L -45.546875 -91.109375 C -43.890625 -91.796875 -42.175781 -92.3125 -40.40625 -92.65625 C -38.632812 -93.007812 -36.707031 -93.1875 -34.625 -93.1875 C -31.851562 -93.1875 -29.289062 -92.820312 -26.9375 -92.09375 C -24.582031 -91.363281 -22.378906 -89.992188 -20.328125 -87.984375 C -18.285156 -85.972656 -16.34375 -83.039062 -14.5 -79.1875 C -12.664062 -75.34375 -10.882812 -70.265625 -9.15625 -63.953125 Z M -21.53125 -63.953125 "/></g></g></g></svg>