<svg xmlns="http://www.w3.org/2000/svg" xmlns:xlink="http://www.w3.org/1999/xlink" width="1080" zoomAndPan="magnify" viewBox="0 0 810 809.999993" height="1080" preserveAspectRatio="xMidYMid meet" version="1.0"><defs><g/></defs><rect x="-81" width="972" fill="#ffffff" y="-80.999999" height="971.999992" fill-opacity="1"/><rect x="-81" width="972" fill="#ffffff" y="-80.999999" height="971.999992" fill-opacity="1"/><g fill="#1d5965" fill-opacity="1"><g transform="translate(229.542647, 624.859091)"><g><path d="M 0 -353.171875 L 358.859375 -353.171875 L 358.859375 -290.71875 L 305.484375 -290.71875 L 305.484375 0 L 229.390625 0 L 229.390625 -150.46875 L 139.6875 -150.46875 L 139.6875 -135.703125 C 139.6875 -120.566406 136.46875 -109.6875 130.03125 -103.0625 C 123.59375 -96.4375 114.316406 -93.125 102.203125 -93.125 C 93.492188 -93.125 84.21875 -95.675781 74.375 -100.78125 C 64.539062 -105.894531 55.363281 -112.613281 46.84375 -120.9375 C 38.320312 -129.269531 31.316406 -138.257812 25.828125 -147.90625 C 20.347656 -157.5625 17.609375 -166.742188 17.609375 -175.453125 C 17.609375 -184.921875 20.160156 -193.53125 25.265625 -201.28125 C 30.378906 -209.039062 41.265625 -212.921875 57.921875 -212.921875 L 229.390625 -212.921875 L 229.390625 -290.71875 L 0 -290.71875 Z M 0 -353.171875 "/></g></g></g><g fill="#1d5965" fill-opacity="1"><g transform="translate(580.452176, 624.859091)"><g><path d="M -117.53125 -349.203125 C -123.96875 -371.535156 -130.304688 -389.800781 -136.546875 -404 C -142.796875 -418.195312 -149.988281 -428.609375 -158.125 -435.234375 C -166.269531 -441.859375 -176.78125 -445.171875 -189.65625 -445.171875 C -197.21875 -445.171875 -204.21875 -444.410156 -210.65625 -442.890625 C -217.09375 -441.378906 -222.960938 -439.675781 -228.265625 -437.78125 L -248.703125 -497.40625 C -239.617188 -501.1875 -230.25 -504.023438 -220.59375 -505.921875 C -210.9375 -507.816406 -200.429688 -508.765625 -189.078125 -508.765625 C -173.941406 -508.765625 -159.9375 -506.773438 -147.0625 -502.796875 C -134.1875 -498.816406 -122.164062 -491.335938 -111 -480.359375 C -99.832031 -469.390625 -89.234375 -453.398438 -79.203125 -432.390625 C -69.171875 -411.378906 -59.425781 -383.648438 -49.96875 -349.203125 Z M -117.53125 -349.203125 "/></g></g></g></svg>